<svg height="502pt" viewBox="-25 0 502 502.624" width="502pt" xmlns="http://www.w3.org/2000/svg"><path d="m451.625 168-168-168-49.578125 49.574219-32-16-32.160156 32.160156 16 32-95.839844 95.839844-32-16-32.160156 32.160156 16 32-41.574219 41.578125 219.3125 219.3125 41.574219-41.578125 32 16 32.160156-32.160156-16-32 142.265625-142.261719zm-246.425781-114.953125 16.921875 8.457031-24.304688 24.304688-8.457031-16.921875zm-144 144 16.921875 8.457031-24.304688 24.304688-8.457031-16.921875zm228.847656 260.527344-16.917969-8.453125 24.304688-24.304688 8.453125 16.917969zm145.578125-193.574219-216 216-196.6875-196.6875 260.6875-260.6875 152 152zm0 0"/><path d="m40.3125 283.3125 179.3125 179.3125 179.3125-179.3125-179.3125-179.3125zm155.3125-132.6875 60.6875 60.6875-12.6875 12.6875-60.6875-60.6875zm-24 24 60.6875 60.6875-12.6875 12.6875-60.6875-60.6875zm-24 24 60.6875 60.6875-12.6875 12.6875-60.6875-60.6875zm-24 24 60.6875 60.6875-12.6875 12.6875-60.6875-60.6875zm-24 24 60.6875 60.6875-12.6875 12.6875-60.6875-60.6875zm-36.6875 36.6875 12.6875-12.6875 60.6875 60.6875-12.6875 12.6875zm156.6875 156.6875-60.6875-60.6875 12.6875-12.6875 60.6875 60.6875zm24-24-60.6875-60.6875 12.6875-12.6875 60.6875 60.6875zm24-24-60.6875-60.6875 12.6875-12.6875 60.6875 60.6875zm24-24-60.6875-60.6875 12.6875-12.6875 60.6875 60.6875zm24-24-60.6875-60.6875 12.6875-12.6875 60.6875 60.6875zm24-24-60.6875-60.6875 12.6875-12.6875 60.6875 60.6875zm36.6875-36.6875-12.6875 12.6875-60.6875-60.6875 12.6875-12.6875zm-72-72-156.6875 156.6875-12.6875-12.6875 156.6875-156.6875zm-36.6875-11.3125-60.6875-60.6875 12.6875-12.6875 60.6875 60.6875zm0 0"/><path d="m232.3125 91.3125 168 168h19.3125v-83.3125l-136-136zm171.3125 148.6875-148.6875-148.6875 28.6875-28.6875 120 120zm0 0"/></svg>