<?xml version="1.0" encoding="iso-8859-1"?>
<!-- Generator: Adobe Illustrator 19.0.0, SVG Export Plug-In . SVG Version: 6.00 Build 0)  -->
<svg version="1.1" id="Capa_1" xmlns="http://www.w3.org/2000/svg" xmlns:xlink="http://www.w3.org/1999/xlink" x="0px" y="0px"
	 viewBox="0 0 511.998 511.998" style="enable-background:new 0 0 511.998 511.998;" xml:space="preserve">
<g>
	<g>
		<path d="M501.999,300.997h-5v-66.248c0-17.725-13.404-32.304-29.88-32.499l-98.492-1.173l-27.438-64.017
			c-2.763-6.446-11.168-26.062-37.004-26.062h-99.647c-5.523,0-10,4.478-10,10v80H24.998c-5.522,0-10,4.478-10,10v22.5v67.498H10
			c-5.523,0-10,4.478-10,10v15c0,13.785,11.214,25,24.998,25h35.851C65.625,379.336,90.323,401,120,401
			c29.676,0,54.374-21.662,59.15-50.002c0.007,0,0.004,0,0,0c0.011,0-0.001,0,0.013,0h163.684
			c4.776,28.34,29.475,50.002,59.15,50.002c29.677,0,54.375-21.662,59.151-50.002h25.85c13.785,0,25-11.215,25-25v-15
			C511.999,305.474,507.522,300.997,501.999,300.997z M60.848,330.997h-35.85c-2.709,0-4.998-2.29-4.998-5v-5h43.439
			C62.298,324.214,61.427,327.557,60.848,330.997z M159.999,341.022C159.985,363.068,142.047,381,120,381
			c-22.053,0-39.994-17.938-40.001-39.989c0-0.004,0.001-0.009,0.001-0.013c0-0.004-0.001-0.009-0.001-0.013
			c0.007-22.05,17.948-39.987,40.001-39.987c22.047,0,39.985,17.931,39.999,39.975c0,0.009-0.001,0.017-0.001,0.025
			C159.998,341.006,159.999,341.014,159.999,341.022z M194.538,330.997H179.15c-4.776-28.339-29.475-50-59.15-50
			c-17.729,0-33.68,7.734-44.674,20H34.998v-14.742h6.615c5.522,0,10-4.478,10-10c0-5.522-4.478-10-10-10h-6.615v-10.75h32.55
			c5.522,0,10-4.478,10-10c0-5.523-4.478-10-10-10h-32.55v-14.506h159.54V330.997z M441.999,341.01
			C441.992,363.062,424.051,381,401.998,381c-22.047,0-39.985-17.931-39.999-39.977c0-0.009,0.001-0.017,0.001-0.025
			c0-0.009-0.001-0.017-0.001-0.025c0.014-22.044,17.952-39.975,39.999-39.975c22.053,0,39.994,17.938,40.001,39.987
			c0,0.004-0.001,0.009-0.001,0.013C441.998,341.002,441.999,341.007,441.999,341.01z M402,280.997h-0.001h-66.55
			c-5.522,0-10,4.478-10,10c0,5.523,4.478,10,10,10h21.876c-7.409,8.266-12.555,18.591-14.478,30H214.538V210.998v-80h89.647
			c9.22,0,14.267,3.778,18.622,13.94l30.002,70c1.559,3.637,5.115,6.013,9.072,6.06l105,1.25
			c5.579,0.066,10.118,5.675,10.118,12.501V261h-6.614c-5.522,0-10,4.478-10,10c0,5.522,4.478,10,10,10h6.614v19.998h-30.327
			C435.679,288.732,419.729,280.998,402,280.997z M486.999,330.997h-25.85c-0.579-3.44-1.45-6.783-2.591-10h33.44v5h0.001
			C491.999,328.707,489.709,330.997,486.999,330.997z"/>
	</g>
</g>
<g>
	<g>
		<path d="M401.999,311.003c-16.539,0-29.995,13.455-29.995,29.994s13.456,29.994,29.995,29.994s29.995-13.455,29.995-29.994
			C431.994,324.458,418.538,311.003,401.999,311.003z M401.999,350.992c-5.512,0-9.995-4.483-9.995-9.994s4.483-9.994,9.995-9.994
			c5.512,0,9.995,4.483,9.995,9.994C411.994,346.508,407.511,350.992,401.999,350.992z"/>
	</g>
</g>
<g>
	<g>
		<path d="M119.999,311.003c-16.539,0-29.995,13.455-29.995,29.994s13.456,29.994,29.995,29.994s29.995-13.455,29.995-29.994
			C149.994,324.458,136.538,311.003,119.999,311.003z M119.999,350.992c-5.512,0-9.995-4.483-9.995-9.994s4.483-9.994,9.995-9.994
			c5.512,0,9.995,4.483,9.995,9.994C129.994,346.508,125.511,350.992,119.999,350.992z"/>
	</g>
</g>
<g>
	<g>
		<path d="M338.554,207.059l-24.945-58.204c-0.219-0.507-0.626-1.45-1.112-2.403c-1.708-3.347-5.148-5.453-8.906-5.453h-67.357
			c-5.522,0-10,4.477-10,10v60c-0.002,5.521,4.476,9.999,9.998,9.999h93.13c3.361,0,6.498-1.689,8.349-4.495
			C339.562,213.695,339.878,210.148,338.554,207.059z M246.232,200.997v-40h50.821l17.144,40H246.232z"/>
	</g>
</g>
<g>
	<g>
		<path d="M306.719,280.997h-0.236c-5.522,0-10,4.478-10,10c0,5.523,4.478,10,10,10h0.236c5.523,0,10-4.477,10-10
			S312.241,280.997,306.719,280.997z"/>
	</g>
</g>
<g>
	<g>
		<path d="M96.514,235.505h-0.236c-5.522,0-10,4.477-10,10s4.478,10,10,10h0.236c5.522,0,10-4.478,10-10
			C106.514,239.981,102.036,235.505,96.514,235.505z"/>
	</g>
</g>
<g>
</g>
<g>
</g>
<g>
</g>
<g>
</g>
<g>
</g>
<g>
</g>
<g>
</g>
<g>
</g>
<g>
</g>
<g>
</g>
<g>
</g>
<g>
</g>
<g>
</g>
<g>
</g>
<g>
</g>
</svg>
