<svg height="512pt" viewBox="0 0 512 512" width="512pt" xmlns="http://www.w3.org/2000/svg"><path d="m497 0h-180c-8.285156 0-15 6.714844-15 15v60c0 8.285156 6.714844 15 15 15h15v30h-15c-8.285156 0-15 6.714844-15 15s6.714844 15 15 15h15v30h-15c-8.285156 0-15 6.714844-15 15v60c0 8.285156 6.714844 15 15 15h45v77.3125c-5.613281 4.226562-10.554688 9.1875-14.730469 14.6875h-46.269531v-45c0-8.285156-6.714844-15-15-15h-60c-8.285156 0-15 6.714844-15 15v45h-46.269531c-4.175781-5.5-9.117188-10.460938-14.730469-14.6875v-77.3125h45c8.285156 0 15-6.714844 15-15v-60c0-8.285156-6.714844-15-15-15h-15v-30h15c8.285156 0 15-6.714844 15-15s-6.714844-15-15-15h-15v-30h15c8.285156 0 15-6.714844 15-15v-60c0-8.285156-6.714844-15-15-15h-180c-8.285156 0-15 6.714844-15 15v60c0 8.285156 6.714844 15 15 15h15v30h-15c-8.285156 0-15 6.714844-15 15s6.714844 15 15 15h15v30h-15c-8.285156 0-15 6.714844-15 15v60c0 8.285156 6.714844 15 15 15h45v77.3125c-18.695312 14.082031-30 36.234375-30 59.6875 0 41.355469 33.644531 75 75 75 24.484375 0 46.261719-11.796875 59.960938-30h46.039062v45c0 8.285156 6.714844 15 15 15h60c8.285156 0 15-6.714844 15-15v-45h46.039062c13.699219 18.203125 35.476563 30 59.960938 30 41.355469 0 75-33.644531 75-75 0-23.453125-11.304688-45.605469-30-59.6875v-77.3125h45c8.285156 0 15-6.714844 15-15v-60c0-8.285156-6.714844-15-15-15h-15v-30h15c8.285156 0 15-6.714844 15-15s-6.714844-15-15-15h-15v-30h15c8.285156 0 15-6.714844 15-15v-60c0-8.285156-6.714844-15-15-15zm-467 30h150v30h-150zm30 60h90v30h-90zm0 60h90v30h-90zm-30 60h150v30h-150zm75 242c-24.8125 0-45-20.1875-45-45 0-16.023438 8.429688-30.496094 22.546875-38.714844 4.613281-2.683594 7.453125-7.621094 7.453125-12.960937v-85.324219h30v85.320312c0 5.339844 2.839844 10.28125 7.453125 12.964844 13.78125 8.023438 22.546875 22.390625 22.546875 38.714844 0 24.8125-20.1875 45-45 45zm73.492188-30c.988281-4.847656 1.507812-9.863281 1.507812-15 0-5.085938-.53125-10.105469-1.554688-15h32.554688v30zm92.507812 60h-30v-150h30zm30-60v-30.011719h32.554688c-1.023438 4.894531-1.554688 9.925781-1.554688 15.011719 0 5.136719.519531 10.152344 1.507812 15zm128.453125-53.714844c14.117187 8.21875 22.546875 22.691406 22.546875 38.714844 0 24.8125-20.1875 45-45 45s-45-20.1875-45-45c0-16.328125 8.769531-30.695312 22.546875-38.714844 4.613281-2.683594 7.453125-7.621094 7.453125-12.960937v-85.324219h30v85.320312c0 5.34375 2.839844 10.28125 7.453125 12.964844zm52.546875-128.285156h-150v-30h150zm-30-60h-90v-30h90zm0-60h-90v-30h90zm30-60h-150v-30h150zm0 0"/><path d="m422 407c0 8.285156-6.714844 15-15 15s-15-6.714844-15-15 6.714844-15 15-15 15 6.714844 15 15zm0 0"/><path d="m120 407c0 8.285156-6.714844 15-15 15s-15-6.714844-15-15 6.714844-15 15-15 15 6.714844 15 15zm0 0"/></svg>