<svg height="496pt" viewBox="0 0 496 496" width="496pt" xmlns="http://www.w3.org/2000/svg"><path d="m456 0c-22.054688 0-40 17.945312-40 40 0 1.457031.28125 2.839844.433594 4.257812l-28.859375 28.855469c-7.949219-5.824219-17.664063-9.113281-27.574219-9.113281-12.273438 0-24.289062 4.976562-32.96875 13.65625l-47.03125 47.03125-16-16-35.3125 35.3125 16 16-20.6875 20.6875-7.03125-7.03125c-8.679688-8.679688-20.695312-13.65625-32.96875-13.65625s-24.289062 4.976562-32.96875 13.65625l-57.375 57.375c-8.679688 8.679688-13.65625 20.695312-13.65625 32.96875 0 7.96875 2.128906 15.808594 5.976562 22.710938l-5.976562 5.976562c-5.160156 5.160156-8 12.015625-8 19.3125s2.839844 14.160156 8 19.3125l4.6875 4.6875-72 72 16 16-19.71875 19.71875c-5.785156 5.785156-8.96875 13.472656-8.96875 21.65625 0 16.882812 13.742188 30.625 30.625 30.625 8.175781 0 15.871094-3.183594 21.65625-8.96875l19.71875-19.71875 16 16 72-72 4.6875 4.6875c5.160156 5.160156 12.015625 8 19.3125 8s14.160156-2.839844 19.3125-8l5.976562-5.976562c6.902344 3.847656 14.742188 5.976562 22.710938 5.976562 12.273438 0 24.289062-4.976562 32.96875-13.65625l57.375-57.375c8.679688-8.679688 13.65625-20.695312 13.65625-32.96875s-4.976562-24.289062-13.65625-32.96875l-7.03125-7.03125 20.6875-20.6875 16 16 35.3125-35.3125-16-16 47.03125-47.03125c8.679688-8.679688 13.65625-20.695312 13.65625-32.96875 0-9.910156-3.289062-19.625-9.113281-27.574219l28.855469-28.859375c1.417968.152344 2.800781.433594 4.257812.433594 22.054688 0 40-17.945312 40-40s-17.945312-40-40-40zm-59.3125 168-12.6875 12.6875-68.6875-68.6875 12.6875-12.6875zm-113.375 8 12.6875-12.6875 36.6875 36.6875-12.6875 12.6875zm-19.3125-44.6875 20.6875 20.6875-12.6875 12.6875-20.6875-20.6875zm-223.03125 344.40625c-2.722656 2.722656-6.488281 4.28125-10.34375 4.28125-8.066406 0-14.625-6.558594-14.625-14.625 0-3.847656 1.558594-7.621094 4.28125-10.34375l19.71875-19.71875 20.6875 20.6875zm95.03125-63.03125-26.34375-26.34375-11.3125 11.3125 26.34375 26.34375-36.6875 36.6875-52.6875-52.6875 12.6875-12.6875 26.34375 26.34375 11.3125-11.3125-26.34375-26.34375 36.6875-36.6875 52.6875 52.6875zm40-8-84.6875-84.6875c-2.136719-2.144531-3.3125-4.976562-3.3125-8s1.175781-5.855469 3.3125-8l4.6875-4.6875 100.6875 100.6875-4.6875 4.6875c-4.28125 4.265625-11.71875 4.265625-16 0zm34.34375-13.65625-105.375-105.375c-5.703125-5.703125-8.96875-13.59375-8.96875-21.65625 0-7.601562 2.984375-14.984375 8.097656-20.59375l148.496094 148.496094c-5.609375 5.113281-12.992188 8.097656-20.59375 8.097656-8.0625 0-15.953125-3.265625-21.65625-8.96875zm-26.34375-103.03125c0-13.230469 10.769531-24 24-24s24 10.769531 24 24-10.769531 24-24 24-24-10.769531-24-24zm127.03125 45.65625-47.03125 47.03125-52.992188-52.992188c20.632813-1.566406 36.992188-18.671874 36.992188-39.695312 0-22.054688-17.945312-40-40-40-21.023438 0-38.128906 16.359375-39.695312 36.992188l-52.992188-52.992188 47.03125-47.03125c5.703125-5.703125 13.59375-8.96875 21.65625-8.96875s15.953125 3.265625 21.65625 8.96875l105.375 105.375c5.703125 5.703125 8.96875 13.59375 8.96875 21.65625s-3.265625 15.953125-8.96875 21.65625zm-7.03125-72.96875-68.6875-68.6875 20.6875-20.6875 68.6875 68.6875zm48-16-20.6875-20.6875 12.6875-12.6875 20.6875 20.6875zm-60.6875-108.6875 12.6875-12.6875 68.6875 68.6875-12.6875 12.6875zm116.589844 20.59375-68.496094-68.496094c5.609375-5.113281 12.992188-8.097656 20.59375-8.097656 8.0625 0 15.953125 3.265625 21.65625 8.96875l25.375 25.375c5.703125 5.703125 8.96875 13.59375 8.96875 21.65625 0 7.601562-2.984375 14.984375-8.097656 20.59375zm4.097656-59.90625-12.6875-12.6875 22.863281-22.863281c3.222657 5.136719 7.550781 9.464843 12.6875 12.6875zm44-32.6875c-13.230469 0-24-10.769531-24-24s10.769531-24 24-24 24 10.769531 24 24-10.769531 24-24 24zm0 0"/><path d="m173.65625 196.28125-22.0625 22.0625 11.308594 11.3125 21.097656-21.097656 34.34375 34.34375 11.3125-11.308594-35.328125-35.328125c-5.457031-5.425781-15.183594-5.433594-20.671875.015625zm0 0"/></svg>