<svg height="464pt" viewBox="0 0 464 464" width="464pt" xmlns="http://www.w3.org/2000/svg"><path d="m83.304688 336 20.6875-20.6875 44.691406 44.691406-20.6875 20.683594zm0 0"/><path d="m111.3125 274.625c-1.695312-1.695312-3.945312-2.625-6.34375-2.625-4.945312 0-8.96875 4.023438-8.96875 8.96875 0 2.359375.960938 4.671875 2.625 6.34375l78.0625 78.0625c1.695312 1.695312 3.945312 2.625 6.34375 2.625 4.945312 0 8.96875-4.023438 8.96875-8.96875 0-2.359375-.960938-4.671875-2.625-6.34375zm0 0"/><path d="m139.304688 280 20.6875-20.6875 44.691406 44.691406-20.6875 20.6875zm0 0"/><path d="m55.3125 330.625c-1.695312-1.695312-3.945312-2.625-6.34375-2.625-4.945312 0-8.96875 4.023438-8.96875 8.96875 0 2.359375.960938 4.671875 2.625 6.34375l78.0625 78.0625c1.695312 1.695312 3.945312 2.625 6.34375 2.625 4.945312 0 8.96875-4.023438 8.96875-8.96875 0-2.359375-.960938-4.671875-2.625-6.34375zm0 0"/><path d="m167.3125 218.625c-1.695312-1.695312-3.945312-2.625-6.34375-2.625-4.945312 0-8.96875 4.023438-8.96875 8.96875 0 2.359375.960938 4.671875 2.625 6.34375l78.0625 78.0625c1.695312 1.695312 3.945312 2.625 6.34375 2.625 4.945312 0 8.96875-4.023438 8.96875-8.96875 0-2.359375-.960938-4.671875-2.625-6.34375zm0 0"/><path d="m48 424c0 4.417969-3.582031 8-8 8s-8-3.582031-8-8 3.582031-8 8-8 8 3.582031 8 8zm0 0"/><path d="m9.257812 410.0625c-5.96875 5.96875-9.257812 13.898438-9.257812 22.34375 0 17.425781 14.175781 31.59375 31.601562 31.59375 8.4375 0 16.375-3.289062 22.34375-9.246094l38.742188-38.753906-44.6875-44.6875zm54.742188 13.9375c0 13.230469-10.769531 24-24 24s-24-10.769531-24-24 10.769531-24 24-24 24 10.769531 24 24zm0 0"/><path d="m251.304688 168.003906 20.6875-20.6875 44.691406 44.6875-20.6875 20.6875zm0 0"/><path d="m432 40c0 4.417969-3.582031 8-8 8s-8-3.582031-8-8 3.582031-8 8-8 8 3.582031 8 8zm0 0"/><path d="m348.070312 47.390625c-4.757812-4.765625-11.09375-7.390625-17.832031-7.390625-8.175781 0-15.621093 3.984375-20.359375 10.558594l103.554688 103.554687c6.574218-4.722656 10.566406-12.167969 10.566406-20.34375 0-6.746093-2.625-13.082031-7.390625-17.839843zm0 0"/><path d="m421.089844 0c-11.464844 0-22.242188 4.464844-30.347656 12.566406l-27.429688 27.433594 60.6875 60.6875 27.433594-27.429688c8.101562-8.105468 12.566406-18.882812 12.566406-30.347656 0-23.664062-19.246094-42.910156-42.910156-42.910156zm2.910156 64c-13.230469 0-24-10.769531-24-24s10.769531-24 24-24 24 10.769531 24 24-10.769531 24-24 24zm0 0"/><path d="m223.3125 162.625c-1.695312-1.695312-3.945312-2.625-6.34375-2.625-4.945312 0-8.96875 4.023438-8.96875 8.96875 0 2.359375.960938 4.671875 2.625 6.34375l78.0625 78.0625c1.695312 1.695312 3.945312 2.625 6.34375 2.625 4.945312 0 8.96875-4.023438 8.96875-8.96875 0-2.359375-.960938-4.671875-2.625-6.34375zm0 0"/><path d="m195.304688 224 20.6875-20.683594 44.691406 44.6875-20.6875 20.6875zm0 0"/><path d="m266.191406 118.878906 78.929688 78.929688 54.613281-34.761719-98.78125-98.789063zm0 0"/></svg>